<?xml version="1.0" encoding="UTF-8"?>
<svg xmlns="http://www.w3.org/2000/svg" xmlns:xlink="http://www.w3.org/1999/xlink" width="60px" height="60px" viewBox="0 0 60 60" version="1.1">
<g id="surface1">
<path style=" stroke:none;fill-rule:nonzero;fill:rgb(1.568628%,0%,60.392159%);fill-opacity:1;" d="M 13.125 18.75 C 7.949219 18.75 3.75 14.550781 3.75 9.375 C 3.75 4.199219 7.949219 0 13.125 0 C 18.300781 0 22.5 4.199219 22.5 9.375 C 22.492188 14.550781 18.300781 18.742188 13.125 18.75 Z M 13.125 3.75 C 10.019531 3.75 7.5 6.269531 7.5 9.375 C 7.5 12.480469 10.019531 15 13.125 15 C 16.230469 15 18.75 12.480469 18.75 9.375 C 18.75 6.269531 16.230469 3.75 13.125 3.75 Z M 13.125 3.75 "/>
<path style=" stroke:none;fill-rule:nonzero;fill:rgb(1.568628%,0%,60.392159%);fill-opacity:1;" d="M 7.5 30 L 3.75 30 C 2.859375 30 2.089844 29.375 1.914062 28.5 L 0.0390625 19.125 C -0.132812 18.292969 0.277344 17.449219 1.035156 17.070312 L 7.785156 13.695312 C 8.714844 13.234375 9.84375 13.613281 10.308594 14.542969 C 10.769531 15.472656 10.390625 16.601562 9.464844 17.0625 L 3.992188 19.785156 L 5.289062 26.25 L 7.5 26.25 C 8.535156 26.25 9.375 27.089844 9.375 28.125 C 9.375 29.160156 8.535156 30 7.5 30 Z M 7.5 30 "/>
<path style=" stroke:none;fill-rule:nonzero;fill:rgb(1.568628%,0%,60.392159%);fill-opacity:1;" d="M 22.5 30 L 15 30 C 13.964844 30 13.125 29.160156 13.125 28.125 C 13.125 27.089844 13.964844 26.25 15 26.25 L 20.960938 26.25 L 22.257812 19.785156 L 16.785156 17.0625 C 16.183594 16.765625 15.78125 16.167969 15.742188 15.496094 C 15.699219 14.824219 16.019531 14.179688 16.582031 13.8125 C 17.144531 13.441406 17.863281 13.402344 18.464844 13.707031 L 25.214844 17.082031 C 25.96875 17.460938 26.378906 18.296875 26.210938 19.125 L 24.335938 28.5 C 24.160156 29.375 23.390625 30 22.5 30 Z M 22.5 30 "/>
<path style=" stroke:none;fill-rule:nonzero;fill:rgb(1.568628%,0%,60.392159%);fill-opacity:1;" d="M 46.875 48.75 C 41.699219 48.75 37.5 44.550781 37.5 39.375 C 37.5 34.199219 41.699219 30 46.875 30 C 52.050781 30 56.25 34.199219 56.25 39.375 C 56.242188 44.550781 52.050781 48.742188 46.875 48.75 Z M 46.875 33.75 C 43.769531 33.75 41.25 36.269531 41.25 39.375 C 41.25 42.480469 43.769531 45 46.875 45 C 49.980469 45 52.5 42.480469 52.5 39.375 C 52.5 36.269531 49.980469 33.75 46.875 33.75 Z M 46.875 33.75 "/>
<path style=" stroke:none;fill-rule:nonzero;fill:rgb(1.568628%,0%,60.392159%);fill-opacity:1;" d="M 41.25 60 L 37.5 60 C 36.609375 60 35.839844 59.375 35.664062 58.5 L 33.789062 49.125 C 33.621094 48.296875 34.03125 47.457031 34.785156 47.078125 L 41.535156 43.703125 C 42.136719 43.398438 42.855469 43.4375 43.417969 43.808594 C 43.980469 44.175781 44.300781 44.820312 44.257812 45.492188 C 44.21875 46.164062 43.816406 46.761719 43.214844 47.058594 L 37.742188 49.785156 L 39.039062 56.25 L 41.25 56.25 C 42.285156 56.25 43.125 57.089844 43.125 58.125 C 43.125 59.160156 42.285156 60 41.25 60 Z M 41.25 60 "/>
<path style=" stroke:none;fill-rule:nonzero;fill:rgb(1.568628%,0%,60.392159%);fill-opacity:1;" d="M 56.25 60 L 48.75 60 C 47.714844 60 46.875 59.160156 46.875 58.125 C 46.875 57.089844 47.714844 56.25 48.75 56.25 L 54.710938 56.25 L 56.007812 49.785156 L 50.535156 47.0625 C 49.933594 46.765625 49.53125 46.167969 49.492188 45.496094 C 49.449219 44.824219 49.769531 44.179688 50.332031 43.8125 C 50.894531 43.441406 51.613281 43.402344 52.214844 43.707031 L 58.964844 47.082031 C 59.71875 47.460938 60.128906 48.296875 59.960938 49.125 L 58.085938 58.5 C 57.910156 59.375 57.140625 60 56.25 60 Z M 56.25 60 "/>
<path style=" stroke:none;fill-rule:nonzero;fill:rgb(46.666667%,67.450982%,94.509804%);fill-opacity:1;" d="M 46.875 26.25 C 45.839844 26.25 45 25.410156 45 24.375 L 45 20.625 C 44.992188 15.449219 40.800781 11.257812 35.625 11.25 L 31.875 11.25 C 30.839844 11.25 30 10.410156 30 9.375 C 30 8.339844 30.839844 7.5 31.875 7.5 L 35.625 7.5 C 42.871094 7.507812 48.742188 13.378906 48.75 20.625 L 48.75 24.375 C 48.75 25.410156 47.910156 26.25 46.875 26.25 Z M 46.875 26.25 "/>
<path style=" stroke:none;fill-rule:nonzero;fill:rgb(46.666667%,67.450982%,94.509804%);fill-opacity:1;" d="M 31.875 15 C 31.378906 15 30.902344 14.800781 30.550781 14.449219 L 26.800781 10.699219 C 26.066406 9.96875 26.066406 8.78125 26.800781 8.050781 L 30.550781 4.300781 C 31.019531 3.8125 31.71875 3.617188 32.371094 3.789062 C 33.027344 3.960938 33.539062 4.472656 33.710938 5.128906 C 33.882812 5.78125 33.6875 6.480469 33.199219 6.949219 L 30.777344 9.375 L 33.199219 11.800781 C 33.738281 12.335938 33.898438 13.140625 33.605469 13.84375 C 33.316406 14.542969 32.632812 15 31.875 15 Z M 31.875 15 "/>
<path style=" stroke:none;fill-rule:nonzero;fill:rgb(46.666667%,67.450982%,94.509804%);fill-opacity:1;" d="M 24.375 52.5 L 20.625 52.5 C 15.449219 52.492188 11.257812 48.300781 11.25 43.125 L 11.25 35.625 C 11.25 34.589844 12.089844 33.75 13.125 33.75 C 14.160156 33.75 15 34.589844 15 35.625 L 15 43.125 C 15 46.230469 17.519531 48.75 20.625 48.75 L 24.375 48.75 C 25.410156 48.75 26.25 49.589844 26.25 50.625 C 26.25 51.660156 25.410156 52.5 24.375 52.5 Z M 24.375 52.5 "/>
<path style=" stroke:none;fill-rule:nonzero;fill:rgb(46.666667%,67.450982%,94.509804%);fill-opacity:1;" d="M 24.375 56.25 C 23.617188 56.25 22.933594 55.792969 22.644531 55.09375 C 22.351562 54.390625 22.511719 53.585938 23.050781 53.050781 L 25.472656 50.625 L 23.050781 48.199219 C 22.339844 47.464844 22.347656 46.296875 23.070312 45.570312 C 23.796875 44.847656 24.964844 44.839844 25.699219 45.550781 L 29.449219 49.300781 C 30.183594 50.03125 30.183594 51.21875 29.449219 51.949219 L 25.699219 55.699219 C 25.347656 56.050781 24.871094 56.25 24.375 56.25 Z M 24.375 56.25 "/>
</g>
</svg>
