<?xml version="1.0" encoding="UTF-8"?>
<svg xmlns="http://www.w3.org/2000/svg" xmlns:xlink="http://www.w3.org/1999/xlink" width="60px" height="60px" viewBox="0 0 60 60" version="1.1">
<g id="surface1">
<path style=" stroke:none;fill-rule:nonzero;fill:rgb(1.568628%,0%,60.392159%);fill-opacity:1;" d="M 35.625 43.125 L 24.375 43.125 C 23.429688 43.125 22.632812 42.421875 22.515625 41.484375 L 22.363281 40.277344 C 21.660156 35.460938 19.671875 30.925781 16.609375 27.140625 C 12.757812 22.121094 12.042969 15.367188 14.75 9.648438 C 17.460938 3.929688 23.140625 0.207031 29.46875 0.0078125 C 35.792969 -0.195312 41.699219 3.160156 44.765625 8.699219 C 45.113281 9.285156 45.117188 10.015625 44.769531 10.605469 C 44.421875 11.195312 43.785156 11.550781 43.101562 11.53125 C 42.417969 11.511719 41.800781 11.125 41.484375 10.515625 C 39.101562 6.214844 34.511719 3.605469 29.59375 3.761719 C 24.675781 3.914062 20.257812 6.808594 18.148438 11.253906 C 16.039062 15.699219 16.59375 20.949219 19.585938 24.855469 C 22.957031 29.054688 25.179688 34.058594 26.027344 39.375 L 33.972656 39.375 C 34.726562 34.140625 36.882812 29.207031 40.21875 25.101562 C 42.109375 22.777344 43.136719 19.871094 43.125 16.875 C 43.125 15.839844 43.964844 15 45 15 C 46.035156 15 46.875 15.839844 46.875 16.875 C 46.871094 20.726562 45.554688 24.457031 43.140625 27.457031 C 40.148438 31.132812 38.242188 35.566406 37.636719 40.265625 L 37.484375 41.484375 C 37.367188 42.421875 36.570312 43.125 35.625 43.125 Z M 35.625 43.125 "/>
<path style=" stroke:none;fill-rule:nonzero;fill:rgb(46.666667%,67.450982%,94.509804%);fill-opacity:1;" d="M 41.25 50.625 L 18.75 50.625 C 17.714844 50.625 16.875 49.785156 16.875 48.75 L 16.875 45 C 16.875 41.894531 19.394531 39.375 22.5 39.375 L 37.5 39.375 C 40.605469 39.375 43.125 41.894531 43.125 45 L 43.125 48.75 C 43.125 49.785156 42.285156 50.625 41.25 50.625 Z M 20.625 46.875 L 39.375 46.875 L 39.375 45 C 39.375 43.964844 38.535156 43.125 37.5 43.125 L 22.5 43.125 C 21.464844 43.125 20.625 43.964844 20.625 45 Z M 20.625 46.875 "/>
<path style=" stroke:none;fill-rule:nonzero;fill:rgb(1.568628%,0%,60.392159%);fill-opacity:1;" d="M 54.375 56.25 L 52.5 56.25 L 52.5 52.5 C 52.5 49.394531 49.980469 46.875 46.875 46.875 L 13.125 46.875 C 10.019531 46.875 7.5 49.394531 7.5 52.5 L 7.5 56.25 L 5.625 56.25 C 4.589844 56.25 3.75 57.089844 3.75 58.125 C 3.75 59.160156 4.589844 60 5.625 60 L 16.875 60 C 17.910156 60 18.75 59.160156 18.75 58.125 C 18.75 57.089844 17.910156 56.25 16.875 56.25 L 11.25 56.25 L 11.25 52.5 C 11.25 51.464844 12.089844 50.625 13.125 50.625 L 46.875 50.625 C 47.910156 50.625 48.75 51.464844 48.75 52.5 L 48.75 56.25 L 24.375 56.25 C 23.339844 56.25 22.5 57.089844 22.5 58.125 C 22.5 59.160156 23.339844 60 24.375 60 L 54.375 60 C 55.410156 60 56.25 59.160156 56.25 58.125 C 56.25 57.089844 55.410156 56.25 54.375 56.25 Z M 54.375 56.25 "/>
</g>
</svg>
