<?xml version="1.0" encoding="UTF-8"?>
<svg xmlns="http://www.w3.org/2000/svg" xmlns:xlink="http://www.w3.org/1999/xlink" width="60px" height="60px" viewBox="0 0 60 60" version="1.1">
<g id="surface1">
<path style=" stroke:none;fill-rule:nonzero;fill:rgb(1.568628%,0%,60.392159%);fill-opacity:1;" d="M 50.625 60 L 22.5 60 C 21.464844 60 20.625 59.160156 20.625 58.125 L 20.625 52.5 L 16.875 52.5 C 13.769531 52.5 11.25 49.980469 11.25 46.875 L 11.25 40.535156 L 4.785156 37.3125 C 4.304688 37.070312 3.949219 36.636719 3.8125 36.117188 C 3.675781 35.597656 3.765625 35.042969 4.066406 34.59375 L 11.25 23.796875 C 11.488281 13.316406 18.402344 4.167969 28.417969 1.074219 C 38.429688 -2.019531 49.300781 1.636719 55.40625 10.152344 C 56.015625 10.992188 55.828125 12.164062 54.988281 12.769531 C 54.148438 13.375 52.976562 13.1875 52.367188 12.347656 C 47.140625 5.082031 37.828125 2.015625 29.304688 4.757812 C 20.785156 7.5 15.007812 15.425781 15 24.375 C 15 24.746094 14.890625 25.105469 14.683594 25.414062 L 8.363281 34.898438 L 13.964844 37.695312 C 14.597656 38.015625 15 38.664062 15 39.375 L 15 46.875 C 15 47.910156 15.839844 48.75 16.875 48.75 L 22.5 48.75 C 23.535156 48.75 24.375 49.589844 24.375 50.625 L 24.375 56.25 L 48.75 56.25 L 48.75 52.4375 C 48.671875 46.304688 50.257812 40.269531 53.335938 34.96875 C 55.621094 31.148438 56.605469 26.6875 56.148438 22.257812 C 56.046875 21.234375 55.867188 20.21875 55.609375 19.21875 C 55.375 18.226562 55.976562 17.230469 56.964844 16.976562 C 57.953125 16.722656 58.960938 17.300781 59.238281 18.28125 C 59.546875 19.46875 59.761719 20.675781 59.878906 21.894531 C 60.421875 27.125 59.253906 32.386719 56.550781 36.894531 C 53.824219 41.617188 52.421875 46.984375 52.5 52.4375 L 52.5 58.125 C 52.5 59.160156 51.660156 60 50.625 60 Z M 50.625 60 "/>
<path style=" stroke:none;fill-rule:nonzero;fill:rgb(1.568628%,0%,60.392159%);fill-opacity:1;" d="M 26.25 52.5 L 22.5 52.5 C 21.464844 52.5 20.625 51.660156 20.625 50.625 C 20.625 49.589844 21.464844 48.75 22.5 48.75 L 26.25 48.75 C 27.285156 48.75 28.125 49.589844 28.125 50.625 C 28.125 51.660156 27.285156 52.5 26.25 52.5 Z M 26.25 52.5 "/>
<path style=" stroke:none;fill-rule:nonzero;fill:rgb(46.666667%,67.450982%,94.509804%);fill-opacity:1;" d="M 37.636719 35.625 L 33.613281 35.625 C 31.703125 35.625 30.117188 34.136719 30 32.230469 C 28.289062 33.082031 26.214844 32.457031 25.257812 30.800781 L 23.25 27.324219 C 22.300781 25.667969 22.796875 23.558594 24.386719 22.5 C 22.796875 21.441406 22.300781 19.332031 23.25 17.675781 L 25.261719 14.199219 C 26.214844 12.542969 28.292969 11.917969 30 12.769531 C 30.117188 10.863281 31.703125 9.375 33.613281 9.375 L 37.636719 9.375 C 39.546875 9.371094 41.132812 10.859375 41.25 12.769531 C 42.960938 11.917969 45.039062 12.542969 45.992188 14.199219 L 48 17.675781 C 48.949219 19.332031 48.453125 21.441406 46.863281 22.5 C 48.449219 23.558594 48.949219 25.664062 48 27.320312 L 45.984375 30.800781 C 45.03125 32.457031 42.953125 33.082031 41.242188 32.230469 C 41.125 34.136719 39.546875 35.625 37.636719 35.625 Z M 33.75 31.875 L 37.5 31.875 C 37.546875 30.632812 38.226562 29.5 39.304688 28.878906 C 40.382812 28.257812 41.703125 28.230469 42.800781 28.8125 L 44.675781 25.5625 C 43.625 24.902344 42.984375 23.742188 42.984375 22.5 C 42.984375 21.257812 43.625 20.097656 44.675781 19.4375 L 42.800781 16.1875 C 41.703125 16.769531 40.382812 16.742188 39.304688 16.121094 C 38.226562 15.5 37.546875 14.367188 37.5 13.125 L 33.75 13.125 C 33.703125 14.367188 33.019531 15.5 31.945312 16.121094 C 30.867188 16.742188 29.546875 16.765625 28.449219 16.1875 L 26.574219 19.4375 C 27.625 20.097656 28.265625 21.257812 28.265625 22.5 C 28.265625 23.742188 27.625 24.902344 26.574219 25.5625 L 28.449219 28.8125 C 29.546875 28.234375 30.867188 28.257812 31.945312 28.878906 C 33.019531 29.5 33.703125 30.632812 33.75 31.875 Z M 42.925781 28.875 Z M 46.675781 22.613281 Z M 42.738281 16.070312 Z M 42.738281 16.070312 "/>
<path style=" stroke:none;fill-rule:nonzero;fill:rgb(46.666667%,67.450982%,94.509804%);fill-opacity:1;" d="M 35.625 26.25 C 33.554688 26.25 31.875 24.570312 31.875 22.5 C 31.875 20.429688 33.554688 18.75 35.625 18.75 C 37.695312 18.75 39.375 20.429688 39.375 22.5 C 39.375 24.570312 37.695312 26.25 35.625 26.25 Z M 35.625 22.5 Z M 35.625 22.5 "/>
</g>
</svg>
